<svg version="1.1" id="Layer_1" xmlns="http://www.w3.org/2000/svg" xmlns:xlink="http://www.w3.org/1999/xlink" x="0px" y="0px"
	 width="100%" viewBox="0 0 500 500" enable-background="new 0 0 500 500" xml:space="preserve">
<path fill="#000000" opacity="1.000000" stroke="none" 
	d="
M276.000000,501.000000 
	C184.000015,501.000000 92.500046,501.000000 1.000049,501.000000 
	C1.000033,334.333405 1.000033,167.666794 1.000016,1.000139 
	C167.666565,1.000092 334.333130,1.000092 500.999756,1.000046 
	C500.999847,167.666519 500.999847,334.333038 500.999939,500.999786 
	C426.166656,501.000000 351.333344,501.000000 276.000000,501.000000 
M349.959686,269.528534 
	C349.959686,269.528534 349.868378,269.054779 350.026337,268.225677 
	C350.628204,264.150299 351.230072,260.074921 351.976807,255.076431 
	C351.303894,247.417557 351.158112,239.668228 349.862396,232.116211 
	C345.405365,206.139130 331.166046,185.897018 310.542633,170.466827 
	C295.800110,159.436661 278.534637,152.853760 260.104279,151.190491 
	C242.102554,149.565918 224.515701,152.616745 208.048584,160.486816 
	C193.627853,167.378860 181.625351,177.266541 171.591095,189.782776 
	C159.062912,205.409836 152.346176,223.274261 151.212341,242.989517 
	C150.649796,252.771011 151.465820,262.823486 153.134781,272.498627 
	C155.939651,288.758759 163.341675,303.218567 174.219208,315.620392 
	C182.459229,325.015106 191.760361,333.351074 202.865585,339.375366 
	C214.155197,345.499725 226.109467,349.594635 239.835205,350.984711 
	C247.568130,350.935577 255.301041,350.886475 263.857025,350.991974 
	C265.260956,350.662659 266.648529,350.183380 268.071442,350.028168 
	C278.034576,348.941650 287.145966,345.303833 296.700043,340.780365 
	C304.839294,335.001373 313.799591,330.083221 320.948029,323.265381 
	C336.155762,308.760925 346.263489,291.035187 349.959686,269.528534 
z"/>
<path fill="#9254FD" opacity="1.000000" stroke="none" 
	d="
M238.959045,350.838318 
	C226.109467,349.594635 214.155197,345.499725 202.865585,339.375366 
	C191.760361,333.351074 182.459229,325.015106 174.219208,315.620392 
	C163.341675,303.218567 155.939651,288.758759 153.134781,272.498627 
	C151.465820,262.823486 150.649796,252.771011 151.212341,242.989517 
	C152.346176,223.274261 159.062912,205.409836 171.591095,189.782776 
	C181.625351,177.266541 193.627853,167.378860 208.048584,160.486816 
	C224.515701,152.616745 242.102554,149.565918 260.104279,151.190491 
	C278.534637,152.853760 295.800110,159.436661 310.542633,170.466827 
	C331.166046,185.897018 345.405365,206.139130 349.862396,232.116211 
	C351.158112,239.668228 351.303894,247.417557 351.627228,255.653046 
	C349.554871,257.326965 347.832123,258.424225 345.218140,260.089142 
	C345.054443,260.377380 344.204651,261.873810 343.796509,262.592468 
	C344.588348,264.896484 345.293549,266.948395 345.999390,269.000153 
	C346.000000,269.000000 346.000275,268.998779 345.711121,269.016602 
	C343.928650,270.470459 342.435303,271.906464 340.905731,273.377319 
	C339.838715,271.110596 339.556122,269.589447 338.644348,268.759430 
	C336.558502,266.860626 334.165192,265.299591 331.278778,263.138763 
	C326.519714,268.458984 321.091888,275.499481 311.981750,266.025879 
	C311.981750,268.808197 311.981750,270.154144 311.981750,271.500122 
	C311.676666,271.557373 311.371613,271.614594 311.066528,271.671844 
	C310.233856,269.873260 309.401184,268.074677 308.758331,266.686127 
	C306.976990,267.920258 305.476532,268.959778 303.890564,269.539795 
	C303.868622,264.389984 303.932190,259.699646 304.336914,254.861816 
	C306.275330,254.684311 307.901489,254.447388 309.464233,254.665268 
	C313.314117,255.202042 313.957428,253.020432 312.852966,250.280884 
	C312.293427,248.892944 310.333099,248.069702 308.971619,246.931885 
	C308.937134,246.872604 308.780365,246.863541 308.780365,246.863541 
	C308.780365,246.863541 308.991119,247.006287 308.737732,247.205704 
	C307.656982,247.602386 306.829559,247.799667 305.969421,247.937775 
	C305.936646,247.878616 305.786652,247.866699 305.786652,247.866699 
	C305.786652,247.866699 305.997131,248.002106 305.827728,248.266541 
	C305.020264,249.060654 304.382233,249.590332 303.387695,250.064590 
	C302.322418,249.881592 301.613647,249.753998 300.643738,249.490326 
	C298.919495,249.463577 297.456329,249.572891 295.553650,249.751984 
	C292.742737,249.775055 290.371368,249.728363 287.865417,249.410812 
	C286.172058,249.312637 284.613312,249.485321 282.716431,249.730621 
	C281.921021,249.762772 281.463715,249.722321 280.980591,249.407196 
	C279.404602,249.014832 277.854523,248.897156 276.304413,248.779480 
	C276.498383,249.176682 276.692322,249.573898 276.822388,250.304077 
	C276.672485,251.079758 276.586487,251.522461 276.154633,251.974594 
	C274.772461,252.925507 273.310242,253.683243 272.805206,254.853912 
	C272.139557,256.396881 272.225555,258.264069 271.928711,260.027161 
	C271.869019,260.062408 271.860992,260.223083 271.860992,260.223083 
	C271.860992,260.223083 272.008240,260.011597 272.265503,259.924194 
	C274.026550,259.855194 275.530365,259.873535 277.498047,259.902466 
	C282.242432,259.913055 286.523010,259.913055 290.839630,259.913055 
	C291.616058,265.505249 290.969269,269.972260 286.206665,272.676544 
	C277.598724,277.564331 266.157562,273.201996 264.263031,263.616302 
	C263.034912,257.402344 263.008850,250.665970 263.929535,244.381271 
	C265.194855,235.744110 270.700989,232.025253 279.343628,231.900070 
	C285.716705,231.807770 290.512848,234.435303 293.613373,240.219086 
	C297.108521,238.078888 300.031403,236.289124 303.583405,234.114105 
	C301.521606,231.486374 300.093903,228.994049 298.059906,227.182556 
	C283.826111,214.506012 257.496368,221.812698 251.942245,239.957886 
	C249.031006,249.468826 249.254166,259.084808 252.300095,268.492767 
	C255.776077,279.229065 264.066925,284.871094 275.326508,284.959503 
	C282.149109,285.013092 287.369171,282.183838 291.177399,276.190521 
	C291.877136,279.286316 292.431000,281.736725 292.971313,284.484741 
	C292.036194,285.284882 291.114655,285.787384 290.193146,286.289856 
	C289.881409,285.891327 289.569672,285.492798 289.257935,285.094269 
	C289.034393,286.783478 288.810852,288.472687 288.523071,290.647186 
	C293.718750,288.293854 298.346039,286.197968 303.212585,283.833130 
	C303.632111,282.378571 303.812439,281.192902 304.221924,279.790466 
	C305.251923,278.887878 306.052765,278.202118 307.993103,276.540558 
	C307.244568,280.439728 306.505981,282.925018 306.336182,285.448608 
	C305.956116,291.097778 304.627655,292.401367 299.889709,292.931549 
	C298.122498,294.011597 296.355286,295.091675 294.574585,296.179962 
	C295.636444,302.705414 295.636444,302.705414 301.284821,304.045044 
	C300.222626,302.163330 299.053925,300.884094 298.834961,299.458923 
	C298.654449,298.284027 299.249878,296.432098 300.146118,295.812073 
	C300.983459,295.232788 302.669098,295.879822 303.921478,296.024506 
	C303.861572,296.061890 303.857239,296.231323 303.857239,296.231323 
	C303.857239,296.231323 304.013641,296.019379 304.341125,296.045959 
	C306.740509,297.094086 309.256866,297.903656 306.974670,300.925476 
	C306.938477,300.866669 306.776093,300.860504 306.776093,300.860504 
	C306.776093,300.860504 306.984283,301.011047 307.211945,301.174011 
	C308.539490,301.613953 309.639374,301.890961 309.960022,301.971710 
	C307.585510,307.535217 305.363861,312.740540 303.142212,317.945862 
	C302.550079,317.725647 301.957947,317.505432 301.365784,317.285217 
	C301.478607,315.316132 301.591400,313.347015 301.704193,311.377899 
	C301.285828,311.239410 300.867462,311.100891 300.449097,310.962372 
	C299.768951,312.563354 299.474487,314.545746 298.337738,315.695190 
	C294.633179,319.441162 296.428345,321.225006 300.069824,323.445404 
	C301.361633,324.233063 301.392365,327.089020 301.999390,329.000366 
	C302.000000,329.000000 302.001221,328.998779 301.676941,328.894897 
	C300.479431,328.060760 299.316193,327.495148 298.789734,326.567932 
	C297.453918,324.215363 295.926666,322.081482 293.085938,323.949982 
	C291.237946,325.165558 289.972717,327.267090 288.446411,328.971680 
	C289.174042,328.964142 289.901672,328.956604 290.629303,328.949066 
	C292.419525,330.966034 294.209778,332.983032 295.676453,334.943909 
	C294.238861,335.353241 293.124847,335.818695 292.010803,336.284149 
	C292.183258,336.696808 292.355713,337.109497 292.528168,337.522156 
	C293.685455,336.681458 294.842712,335.840729 296.301086,335.022949 
	C296.948151,335.802399 297.689850,336.640076 297.554871,337.297882 
	C297.301208,338.534149 296.541138,339.666534 295.991669,340.842102 
	C287.145966,345.303833 278.034576,348.941650 268.071442,350.028168 
	C266.648529,350.183380 265.260956,350.662659 263.151184,350.610168 
	C254.616592,350.431702 246.787827,350.635010 238.959045,350.838318 
M336.757050,250.373459 
	C335.165924,249.699387 333.574799,249.025299 331.983673,248.351212 
	C331.850342,249.110886 331.717010,249.870544 331.583679,250.630219 
	C333.387085,250.755722 335.190491,250.881241 336.996643,251.765182 
	C336.763519,254.016434 336.530396,256.267700 336.264740,258.832916 
	C332.880493,256.516052 330.620056,254.968552 328.309448,253.386719 
	C328.564484,252.341125 328.989075,250.600433 329.572174,248.209854 
	C327.093445,249.252991 325.461823,249.939651 323.419891,250.798965 
	C326.099548,260.397034 317.329102,258.445648 312.734283,260.805328 
	C314.656250,262.861938 316.300842,264.621735 318.350861,266.815338 
	C320.787903,264.984589 323.111816,263.009552 325.668945,261.406555 
	C327.132080,260.489319 329.008698,259.595245 330.640533,259.690887 
	C338.838959,260.171661 340.617065,258.728638 340.861725,250.366699 
	C339.538940,250.581833 338.272003,250.787872 336.757050,250.373459 
M219.383209,246.169983 
	C218.562805,246.033005 217.727402,245.954819 216.924377,245.749771 
	C210.512909,244.112473 208.051987,241.734772 208.924606,237.503830 
	C210.030991,232.139465 214.553909,231.453552 218.686356,232.044281 
	C223.752548,232.768478 228.653870,234.645981 234.300186,236.211700 
	C234.524323,235.929337 235.475632,234.801285 236.350342,233.616684 
	C240.140320,228.484055 240.045303,227.684326 234.463715,224.718109 
	C227.421768,220.975830 219.893723,220.366028 212.153320,221.871643 
	C202.544006,223.740768 197.069046,229.490036 196.640778,238.073547 
	C196.199341,246.920883 200.756134,253.052765 210.197266,255.918930 
	C214.327408,257.172760 218.608566,257.920410 222.775513,259.064148 
	C227.053055,260.238251 229.960129,262.640320 229.233597,267.624878 
	C228.507172,272.608582 224.925247,273.838104 220.587387,274.133362 
	C212.758148,274.666321 206.898560,271.043701 201.979645,264.751556 
	C200.338242,266.668152 199.225250,268.330261 197.768692,269.597473 
	C194.061432,272.822845 195.327362,275.277039 198.446442,278.047882 
	C206.828354,285.493896 224.178268,287.400146 233.726822,281.645386 
	C240.121780,277.791290 242.287613,271.812439 242.017715,264.648651 
	C241.762726,257.880585 238.824280,252.697174 232.570206,250.028458 
	C228.634583,248.349091 224.333755,247.525574 219.383209,246.169983 
M295.390594,310.613251 
	C296.546021,309.999725 297.701447,309.386230 298.856842,308.772705 
	C298.542969,308.197388 298.229095,307.622070 297.915222,307.046753 
	C295.569061,307.942688 293.222900,308.838654 290.876740,309.734619 
	C290.943268,310.046692 291.009796,310.358734 291.076355,310.670807 
	C292.320099,310.610321 293.563843,310.549805 295.390594,310.613251 
M336.730743,244.894379 
	C337.991150,244.092361 339.251587,243.290329 340.802216,242.303650 
	C338.364166,241.251266 336.605377,240.492096 333.804657,239.283173 
	C334.928162,241.716843 335.586334,243.142548 336.730743,244.894379 
M287.082184,339.420959 
	C287.930878,339.483795 288.779572,339.546631 289.628265,339.609497 
	C288.662659,337.940155 287.697021,336.270813 286.731415,334.601471 
	C286.311096,334.854095 285.890778,335.106750 285.470428,335.359406 
	C285.917694,336.515259 286.364929,337.671112 287.082184,339.420959 
M268.783234,250.443314 
	C267.861084,249.522797 266.938965,248.602280 266.016815,247.681778 
	C265.795868,247.917953 265.574890,248.154144 265.353912,248.390320 
	C265.711243,249.779221 266.068604,251.168106 266.519867,252.922104 
	C267.449524,252.063660 268.030609,251.527084 268.783234,250.443314 
M276.321045,267.555298 
	C276.983917,267.081970 277.646759,266.608643 278.309631,266.135345 
	C278.115601,265.908997 277.921570,265.682617 277.727570,265.456238 
	C277.147278,266.025055 276.566956,266.593903 276.321045,267.555298 
M304.513733,308.924896 
	C304.362915,308.556732 304.212097,308.188538 304.061249,307.820374 
	C303.843201,307.994141 303.625122,308.167908 303.407074,308.341675 
	C303.668579,308.627808 303.930084,308.913940 304.513733,308.924896 
M309.047638,240.633743 
	C309.354645,240.885651 309.657867,241.142822 309.979919,241.373718 
	C309.995850,241.385132 310.175964,241.167511 310.279633,241.056549 
	C309.958374,240.826263 309.637085,240.595978 309.047638,240.633743 
M320.104309,253.353699 
	C320.062866,253.124832 320.021423,252.895966 319.980011,252.667099 
	C319.926178,252.892960 319.872375,253.118835 320.104309,253.353699 
M341.892639,259.648438 
	C341.933838,259.878052 341.975006,260.107697 342.016205,260.337311 
	C342.070587,260.110474 342.124969,259.883606 341.892639,259.648438 
M285.256409,297.494415 
	C285.313019,297.881958 285.369659,298.269470 285.426270,298.657013 
	C285.542572,298.602051 285.763916,298.533936 285.758942,298.494202 
	C285.710449,298.106842 285.624084,297.724182 285.256409,297.494415 
M292.819305,243.318253 
	C292.954346,243.129181 293.089386,242.940109 293.224426,242.751038 
	C293.025879,242.870972 292.827362,242.990906 292.819305,243.318253 
M289.335632,294.871277 
	C289.201324,295.046661 289.066986,295.222046 288.932678,295.397430 
	C289.121368,295.287018 289.310059,295.176636 289.335632,294.871277 
M304.286530,287.138458 
	C304.243530,286.937103 304.200562,286.735718 304.157593,286.534363 
	C304.118927,286.725037 304.080261,286.915710 304.286530,287.138458 
M337.389832,262.073517 
	C337.389832,262.073517 337.598999,262.016205 337.598999,262.016205 
	C337.598999,262.016205 337.392944,261.947266 337.389832,262.073517 
M289.595856,333.071198 
	C289.595856,333.071198 289.459503,332.874146 289.459503,332.874146 
	C289.459503,332.874146 289.474152,333.125336 289.595856,333.071198 
M269.388733,257.074524 
	C269.388733,257.074524 269.601349,257.016144 269.601349,257.016144 
	C269.601349,257.016144 269.391846,256.946198 269.388733,257.074524 
M315.501526,250.470886 
	C315.501526,250.470886 315.518250,250.514786 315.501526,250.470886 
M298.529266,247.501404 
	C298.529266,247.501404 298.486816,247.517502 298.529266,247.501404 
M303.471100,312.498505 
	C303.471100,312.498505 303.513763,312.482117 303.471100,312.498505 
M316.471680,253.497955 
	C316.471680,253.497955 316.513458,253.481903 316.471680,253.497955 
M269.470795,254.498184 
	C269.470795,254.498184 269.514191,254.481323 269.470795,254.498184 
M282.471405,299.498016 
	C282.471405,299.498016 282.513214,299.481934 282.471405,299.498016 
M300.497406,297.531403 
	C300.497406,297.531403 300.479828,297.486725 300.497406,297.531403 
M281.501465,297.472137 
	C281.501465,297.472137 281.517365,297.513794 281.501465,297.472137 
M282.501038,295.472961 
	C282.501038,295.472961 282.516235,295.513977 282.501038,295.472961 
z"/>
<path fill="#9956F9" opacity="1.000000" stroke="none" 
	d="
M296.345856,340.811218 
	C296.541138,339.666534 297.301208,338.534149 297.554871,337.297882 
	C297.689850,336.640076 296.948151,335.802399 296.301086,335.022949 
	C294.209778,332.983032 292.419525,330.966034 290.629303,328.949066 
	C289.901672,328.956604 289.174042,328.964142 288.446411,328.971680 
	C289.972717,327.267090 291.237946,325.165558 293.085938,323.949982 
	C295.926666,322.081482 297.453918,324.215363 298.789734,326.567932 
	C299.316193,327.495148 300.479431,328.060760 301.529053,329.132324 
	C301.240784,330.153595 300.776123,330.833588 300.083130,331.847748 
	C306.866119,330.705536 307.640167,329.821686 305.722351,326.138580 
	C304.491486,327.084717 303.245117,328.042755 301.998779,329.000763 
	C301.392365,327.089020 301.361633,324.233063 300.069824,323.445404 
	C296.428345,321.225006 294.633179,319.441162 298.337738,315.695190 
	C299.474487,314.545746 299.768951,312.563354 300.449097,310.962372 
	C300.867462,311.100891 301.285828,311.239410 301.704193,311.377899 
	C301.591400,313.347015 301.478607,315.316132 301.365784,317.285217 
	C301.957947,317.505432 302.550079,317.725647 303.142212,317.945862 
	C305.363861,312.740540 307.585510,307.535217 309.960022,301.971710 
	C309.639374,301.890961 308.539490,301.613953 307.219666,301.168335 
	C306.999695,300.999756 307.010895,300.984253 307.010895,300.984253 
	C309.256866,297.903656 306.740509,297.094086 304.334229,296.036682 
	C303.999817,296.000793 303.981384,295.987122 303.981384,295.987122 
	C302.669098,295.879822 300.983459,295.232788 300.146118,295.812073 
	C299.249878,296.432098 298.654449,298.284027 298.834961,299.458923 
	C299.053925,300.884094 300.222626,302.163330 301.284821,304.045044 
	C295.636444,302.705414 295.636444,302.705414 294.574585,296.179962 
	C296.355286,295.091675 298.122498,294.011597 299.889709,292.931549 
	C304.627655,292.401367 305.956116,291.097778 306.336182,285.448608 
	C306.505981,282.925018 307.244568,280.439728 307.993103,276.540558 
	C306.052765,278.202118 305.251923,278.887878 304.131897,279.342590 
	C303.867157,276.074097 303.921631,273.036682 303.976074,269.999298 
	C305.476532,268.959778 306.976990,267.920258 308.758331,266.686127 
	C309.401184,268.074677 310.233856,269.873260 311.066528,271.671844 
	C311.371613,271.614594 311.676666,271.557373 311.981750,271.500122 
	C311.981750,270.154144 311.981750,268.808197 311.981750,266.025879 
	C321.091888,275.499481 326.519714,268.458984 331.278778,263.138763 
	C334.165192,265.299591 336.558502,266.860626 338.644348,268.759430 
	C339.556122,269.589447 339.838715,271.110596 340.905731,273.377319 
	C342.435303,271.906464 343.928650,270.470459 345.743225,269.075348 
	C346.064423,269.116241 345.998779,269.000305 345.998779,269.000305 
	C345.293549,266.948395 344.588348,264.896484 343.796509,262.592468 
	C344.204651,261.873810 345.054443,260.377380 345.218140,260.089142 
	C347.832123,258.424225 349.554871,257.326965 351.554810,256.114624 
	C351.230072,260.074921 350.628204,264.150299 349.859253,268.741364 
	C349.578247,269.526581 349.624878,269.772156 349.832031,269.993774 
	C346.263489,291.035187 336.155762,308.760925 320.948029,323.265381 
	C313.799591,330.083221 304.839294,335.001373 296.345856,340.811218 
M323.249603,276.656067 
	C323.477448,275.981537 323.705292,275.307037 323.933167,274.632507 
	C323.139954,274.922211 322.346741,275.211884 321.553528,275.501587 
	C321.976593,276.006012 322.399628,276.510406 323.249603,276.656067 
M309.646088,328.104919 
	C309.875153,328.063324 310.104187,328.021759 310.333252,327.980194 
	C310.107178,327.926392 309.881073,327.872620 309.646088,328.104919 
M308.527283,331.498962 
	C308.527283,331.498962 308.486359,331.514069 308.527283,331.498962 
M297.472565,329.499390 
	C297.472565,329.499390 297.514374,329.483887 297.472565,329.499390 
M325.527405,271.500305 
	C325.527405,271.500305 325.486450,271.515747 325.527405,271.500305 
z"/>
<path fill="#EBDFFE" opacity="1.000000" stroke="none" 
	d="
M239.397125,350.911499 
	C246.787827,350.635010 254.616592,350.431702 262.739685,350.532898 
	C255.301041,350.886475 247.568130,350.935577 239.397125,350.911499 
z"/>
<path fill="#9254FD" opacity="1.000000" stroke="none" 
	d="
M349.895874,269.761169 
	C349.624878,269.772156 349.578247,269.526581 349.780273,269.155914 
	C349.868378,269.054779 349.959686,269.528534 349.895874,269.761169 
z"/>
<path fill="#FCFAFF" opacity="1.000000" stroke="none" 
	d="
M303.890564,269.539795 
	C303.921631,273.036682 303.867157,276.074097 303.902771,279.559387 
	C303.812439,281.192902 303.632111,282.378571 302.761047,283.799316 
	C299.041809,284.085297 296.013336,284.136200 292.984863,284.187103 
	C292.431000,281.736725 291.877136,279.286316 291.177399,276.190521 
	C287.369171,282.183838 282.149109,285.013092 275.326508,284.959503 
	C264.066925,284.871094 255.776077,279.229065 252.300095,268.492767 
	C249.254166,259.084808 249.031006,249.468826 251.942245,239.957886 
	C257.496368,221.812698 283.826111,214.506012 298.059906,227.182556 
	C300.093903,228.994049 301.521606,231.486374 303.583405,234.114105 
	C300.031403,236.289124 297.108521,238.078888 293.613373,240.219086 
	C290.512848,234.435303 285.716705,231.807770 279.343628,231.900070 
	C270.700989,232.025253 265.194855,235.744110 263.929535,244.381271 
	C263.008850,250.665970 263.034912,257.402344 264.263031,263.616302 
	C266.157562,273.201996 277.598724,277.564331 286.206665,272.676544 
	C290.969269,269.972260 291.616058,265.505249 290.839630,259.913055 
	C286.523010,259.913055 282.242432,259.913055 277.426025,259.467834 
	C276.760254,256.670105 276.630402,254.317642 276.500519,251.965164 
	C276.586487,251.522461 276.672485,251.079758 277.234802,250.267014 
	C278.809570,249.825272 279.907990,249.753571 281.006439,249.681885 
	C281.463715,249.722321 281.921021,249.762772 283.124023,249.807892 
	C285.246490,249.768921 286.623230,249.725311 288.000000,249.681671 
	C290.371368,249.728363 292.742737,249.775055 295.959167,249.826721 
	C298.171112,249.763275 299.537994,249.694839 300.904846,249.626404 
	C301.613647,249.753998 302.322418,249.881592 303.379700,250.473450 
	C303.817413,252.294922 303.906586,253.652130 303.995758,255.009323 
	C303.932190,259.699646 303.868622,264.389984 303.890564,269.539795 
z"/>
<path fill="#FCFBFF" opacity="1.000000" stroke="none" 
	d="
M219.789978,246.244049 
	C224.333755,247.525574 228.634583,248.349091 232.570206,250.028458 
	C238.824280,252.697174 241.762726,257.880585 242.017715,264.648651 
	C242.287613,271.812439 240.121780,277.791290 233.726822,281.645386 
	C224.178268,287.400146 206.828354,285.493896 198.446442,278.047882 
	C195.327362,275.277039 194.061432,272.822845 197.768692,269.597473 
	C199.225250,268.330261 200.338242,266.668152 201.979645,264.751556 
	C206.898560,271.043701 212.758148,274.666321 220.587387,274.133362 
	C224.925247,273.838104 228.507172,272.608582 229.233597,267.624878 
	C229.960129,262.640320 227.053055,260.238251 222.775513,259.064148 
	C218.608566,257.920410 214.327408,257.172760 210.197266,255.918930 
	C200.756134,253.052765 196.199341,246.920883 196.640778,238.073547 
	C197.069046,229.490036 202.544006,223.740768 212.153320,221.871643 
	C219.893723,220.366028 227.421768,220.975830 234.463715,224.718109 
	C240.045303,227.684326 240.140320,228.484055 236.350342,233.616684 
	C235.475632,234.801285 234.524323,235.929337 234.300186,236.211700 
	C228.653870,234.645981 223.752548,232.768478 218.686356,232.044281 
	C214.553909,231.453552 210.030991,232.139465 208.924606,237.503830 
	C208.051987,241.734772 210.512909,244.112473 216.924377,245.749771 
	C217.727402,245.954819 218.562805,246.033005 219.789978,246.244049 
z"/>
<path fill="#9956F9" opacity="1.000000" stroke="none" 
	d="
M337.005066,250.993896 
	C338.272003,250.787872 339.538940,250.581833 340.861725,250.366699 
	C340.617065,258.728638 338.838959,260.171661 330.640533,259.690887 
	C329.008698,259.595245 327.132080,260.489319 325.668945,261.406555 
	C323.111816,263.009552 320.787903,264.984589 318.350861,266.815338 
	C316.300842,264.621735 314.656250,262.861938 312.734283,260.805328 
	C317.329102,258.445648 326.099548,260.397034 323.419891,250.798965 
	C325.461823,249.939651 327.093445,249.252991 329.572174,248.209854 
	C328.989075,250.600433 328.564484,252.341125 328.309448,253.386719 
	C330.620056,254.968552 332.880493,256.516052 336.264740,258.832916 
	C336.530396,256.267700 336.763519,254.016434 336.998322,251.382629 
	C337.000000,251.000076 337.005066,250.993896 337.005066,250.993896 
z"/>
<path fill="#9956F9" opacity="1.000000" stroke="none" 
	d="
M304.336914,254.861816 
	C303.906586,253.652130 303.817413,252.294922 303.736206,250.528870 
	C304.382233,249.590332 305.020264,249.060654 305.829163,248.265503 
	C306.000000,248.000000 306.002167,247.996948 306.002167,247.996948 
	C306.829559,247.799667 307.656982,247.602386 308.742188,247.202560 
	C309.000000,247.000000 309.006073,246.991165 309.006073,246.991165 
	C310.333099,248.069702 312.293427,248.892944 312.852966,250.280884 
	C313.957428,253.020432 313.314117,255.202042 309.464233,254.665268 
	C307.901489,254.447388 306.275330,254.684311 304.336914,254.861816 
z"/>
<path fill="#9956F9" opacity="1.000000" stroke="none" 
	d="
M276.154633,251.974594 
	C276.630402,254.317642 276.760254,256.670105 276.962158,259.457214 
	C275.530365,259.873535 274.026550,259.855194 272.261353,259.918396 
	C272.000000,260.000000 271.988403,259.991882 271.988403,259.991882 
	C272.225555,258.264069 272.139557,256.396881 272.805206,254.853912 
	C273.310242,253.683243 274.772461,252.925507 276.154633,251.974594 
z"/>
<path fill="#9956F9" opacity="1.000000" stroke="none" 
	d="
M292.971313,284.484741 
	C296.013336,284.136200 299.041809,284.085297 302.521820,284.068237 
	C298.346039,286.197968 293.718750,288.293854 288.523071,290.647186 
	C288.810852,288.472687 289.034393,286.783478 289.257935,285.094269 
	C289.569672,285.492798 289.881409,285.891327 290.193146,286.289856 
	C291.114655,285.787384 292.036194,285.284882 292.971313,284.484741 
z"/>
<path fill="#9956F9" opacity="1.000000" stroke="none" 
	d="
M295.099091,310.551270 
	C293.563843,310.549805 292.320099,310.610321 291.076355,310.670807 
	C291.009796,310.358734 290.943268,310.046692 290.876740,309.734619 
	C293.222900,308.838654 295.569061,307.942688 297.915222,307.046753 
	C298.229095,307.622070 298.542969,308.197388 298.856842,308.772705 
	C297.701447,309.386230 296.546021,309.999725 295.099091,310.551270 
z"/>
<path fill="#9956F9" opacity="1.000000" stroke="none" 
	d="
M336.487610,244.731308 
	C335.586334,243.142548 334.928162,241.716843 333.804657,239.283173 
	C336.605377,240.492096 338.364166,241.251266 340.802216,242.303650 
	C339.251587,243.290329 337.991150,244.092361 336.487610,244.731308 
z"/>
<path fill="#9956F9" opacity="1.000000" stroke="none" 
	d="
M286.947205,339.123962 
	C286.364929,337.671112 285.917694,336.515259 285.470428,335.359406 
	C285.890778,335.106750 286.311096,334.854095 286.731415,334.601471 
	C287.697021,336.270813 288.662659,337.940155 289.628265,339.609497 
	C288.779572,339.546631 287.930878,339.483795 286.947205,339.123962 
z"/>
<path fill="#9956F9" opacity="1.000000" stroke="none" 
	d="
M336.996948,251.003418 
	C335.190491,250.881241 333.387085,250.755722 331.583679,250.630219 
	C331.717010,249.870544 331.850342,249.110886 331.983673,248.351212 
	C333.574799,249.025299 335.165924,249.699387 336.881042,250.683685 
	C337.005066,250.993896 337.000000,251.000076 336.996948,251.003418 
z"/>
<path fill="#9956F9" opacity="1.000000" stroke="none" 
	d="
M268.697449,250.716904 
	C268.030609,251.527084 267.449524,252.063660 266.519867,252.922104 
	C266.068604,251.168106 265.711243,249.779221 265.353912,248.390320 
	C265.574890,248.154144 265.795868,247.917953 266.016815,247.681778 
	C266.938965,248.602280 267.861084,249.522797 268.697449,250.716904 
z"/>
<path fill="#9956F9" opacity="1.000000" stroke="none" 
	d="
M280.980591,249.407196 
	C279.907990,249.753571 278.809570,249.825272 277.298706,249.934036 
	C276.692322,249.573898 276.498383,249.176682 276.304413,248.779480 
	C277.854523,248.897156 279.404602,249.014832 280.980591,249.407196 
z"/>
<path fill="#9956F9" opacity="1.000000" stroke="none" 
	d="
M287.865417,249.410828 
	C286.623230,249.725311 285.246490,249.768921 283.462158,249.735275 
	C284.613312,249.485321 286.172058,249.312637 287.865417,249.410828 
z"/>
<path fill="#9956F9" opacity="1.000000" stroke="none" 
	d="
M295.676453,334.943909 
	C294.842712,335.840729 293.685455,336.681458 292.528168,337.522156 
	C292.355713,337.109497 292.183258,336.696808 292.010803,336.284149 
	C293.124847,335.818695 294.238861,335.353241 295.676453,334.943909 
z"/>
<path fill="#9956F9" opacity="1.000000" stroke="none" 
	d="
M276.153870,267.359009 
	C276.566956,266.593903 277.147278,266.025055 277.727570,265.456238 
	C277.921570,265.682617 278.115601,265.908997 278.309631,266.135345 
	C277.646759,266.608643 276.983917,267.081970 276.153870,267.359009 
z"/>
<path fill="#9956F9" opacity="1.000000" stroke="none" 
	d="
M300.643738,249.490326 
	C299.537994,249.694839 298.171112,249.763275 296.398743,249.756958 
	C297.456329,249.572891 298.919495,249.463577 300.643738,249.490326 
z"/>
<path fill="#9956F9" opacity="1.000000" stroke="none" 
	d="
M304.352661,309.062500 
	C303.930084,308.913940 303.668579,308.627808 303.407074,308.341675 
	C303.625122,308.167908 303.843201,307.994141 304.061249,307.820374 
	C304.212097,308.188538 304.362915,308.556732 304.352661,309.062500 
z"/>
<path fill="#9956F9" opacity="1.000000" stroke="none" 
	d="
M309.181732,240.499725 
	C309.637085,240.595978 309.958374,240.826263 310.279633,241.056549 
	C310.175964,241.167511 309.995850,241.385132 309.979919,241.373718 
	C309.657867,241.142822 309.354645,240.885651 309.181732,240.499725 
z"/>
<path fill="#9956F9" opacity="1.000000" stroke="none" 
	d="
M319.961426,253.349197 
	C319.872375,253.118835 319.926178,252.892960 319.980011,252.667099 
	C320.021423,252.895966 320.062866,253.124832 319.961426,253.349197 
z"/>
<path fill="#9956F9" opacity="1.000000" stroke="none" 
	d="
M342.036011,259.652588 
	C342.124969,259.883606 342.070587,260.110474 342.016205,260.337311 
	C341.975006,260.107697 341.933838,259.878052 342.036011,259.652588 
z"/>
<path fill="#9956F9" opacity="1.000000" stroke="none" 
	d="
M285.402466,297.417297 
	C285.624084,297.724182 285.710449,298.106842 285.758942,298.494202 
	C285.763916,298.533936 285.542572,298.602051 285.426270,298.657013 
	C285.369659,298.269470 285.313019,297.881958 285.402466,297.417297 
z"/>
<path fill="#9956F9" opacity="1.000000" stroke="none" 
	d="
M292.724060,243.214539 
	C292.827362,242.990906 293.025879,242.870972 293.224426,242.751038 
	C293.089386,242.940109 292.954346,243.129181 292.724060,243.214539 
z"/>
<path fill="#9956F9" opacity="1.000000" stroke="none" 
	d="
M289.417175,294.968750 
	C289.310059,295.176636 289.121368,295.287018 288.932678,295.397430 
	C289.066986,295.222046 289.201324,295.046661 289.417175,294.968750 
z"/>
<path fill="#9956F9" opacity="1.000000" stroke="none" 
	d="
M304.164062,287.122437 
	C304.080261,286.915710 304.118927,286.725037 304.157593,286.534363 
	C304.200562,286.735718 304.243530,286.937103 304.164062,287.122437 
z"/>
<path fill="#9956F9" opacity="1.000000" stroke="none" 
	d="
M337.391388,262.010376 
	C337.392944,261.947266 337.598999,262.016205 337.598999,262.016205 
	C337.598999,262.016205 337.389832,262.073517 337.391388,262.010376 
z"/>
<path fill="#9956F9" opacity="1.000000" stroke="none" 
	d="
M289.535004,333.098267 
	C289.474152,333.125336 289.459503,332.874146 289.459503,332.874146 
	C289.459503,332.874146 289.595856,333.071198 289.535004,333.098267 
z"/>
<path fill="#9956F9" opacity="1.000000" stroke="none" 
	d="
M269.390289,257.010376 
	C269.391846,256.946198 269.601349,257.016144 269.601349,257.016144 
	C269.601349,257.016144 269.388733,257.074524 269.390289,257.010376 
z"/>
<path fill="#9956F9" opacity="1.000000" stroke="none" 
	d="
M308.995544,247.003143 
	C308.991119,247.006287 308.780365,246.863541 308.780365,246.863541 
	C308.780365,246.863541 308.937134,246.872604 308.971619,246.931885 
	C309.006073,246.991165 309.000000,247.000000 308.995544,247.003143 
z"/>
<path fill="#9956F9" opacity="1.000000" stroke="none" 
	d="
M315.509888,250.492828 
	C315.518250,250.514786 315.501526,250.470886 315.509888,250.492828 
z"/>
<path fill="#9956F9" opacity="1.000000" stroke="none" 
	d="
M305.998566,248.001053 
	C305.997131,248.002106 305.786652,247.866699 305.786652,247.866699 
	C305.786652,247.866699 305.936646,247.878616 305.969421,247.937775 
	C306.002167,247.996948 306.000000,248.000000 305.998566,248.001053 
z"/>
<path fill="#9956F9" opacity="1.000000" stroke="none" 
	d="
M272.004120,260.005798 
	C272.008240,260.011597 271.860992,260.223083 271.860992,260.223083 
	C271.860992,260.223083 271.869019,260.062408 271.928711,260.027161 
	C271.988403,259.991882 272.000000,260.000000 272.004120,260.005798 
z"/>
<path fill="#9956F9" opacity="1.000000" stroke="none" 
	d="
M298.508057,247.509460 
	C298.486816,247.517502 298.529266,247.501404 298.508057,247.509460 
z"/>
<path fill="#9956F9" opacity="1.000000" stroke="none" 
	d="
M303.492432,312.490295 
	C303.513763,312.482117 303.471100,312.498505 303.492432,312.490295 
z"/>
<path fill="#9956F9" opacity="1.000000" stroke="none" 
	d="
M316.492554,253.489929 
	C316.513458,253.481903 316.471680,253.497955 316.492554,253.489929 
z"/>
<path fill="#9956F9" opacity="1.000000" stroke="none" 
	d="
M269.492493,254.489746 
	C269.514191,254.481323 269.470795,254.498184 269.492493,254.489746 
z"/>
<path fill="#9956F9" opacity="1.000000" stroke="none" 
	d="
M306.992004,301.005402 
	C306.984283,301.011047 306.776093,300.860504 306.776093,300.860504 
	C306.776093,300.860504 306.938477,300.866669 306.974670,300.925476 
	C307.010895,300.984253 306.999695,300.999756 306.992004,301.005402 
z"/>
<path fill="#9956F9" opacity="1.000000" stroke="none" 
	d="
M282.492310,299.489990 
	C282.513214,299.481934 282.471405,299.498016 282.492310,299.489990 
z"/>
<path fill="#9956F9" opacity="1.000000" stroke="none" 
	d="
M300.488617,297.509064 
	C300.479828,297.486725 300.497406,297.531403 300.488617,297.509064 
z"/>
<path fill="#9956F9" opacity="1.000000" stroke="none" 
	d="
M281.509399,297.492981 
	C281.517365,297.513794 281.501465,297.472137 281.509399,297.492981 
z"/>
<path fill="#9956F9" opacity="1.000000" stroke="none" 
	d="
M304.006714,296.010071 
	C304.013641,296.019379 303.857239,296.231323 303.857239,296.231323 
	C303.857239,296.231323 303.861572,296.061890 303.921478,296.024506 
	C303.981384,295.987122 303.999817,296.000793 304.006714,296.010071 
z"/>
<path fill="#9956F9" opacity="1.000000" stroke="none" 
	d="
M282.508636,295.493469 
	C282.516235,295.513977 282.501038,295.472961 282.508636,295.493469 
z"/>
<path fill="#9254FD" opacity="1.000000" stroke="none" 
	d="
M301.999390,329.000366 
	C303.245117,328.042755 304.491486,327.084717 305.722351,326.138580 
	C307.640167,329.821686 306.866119,330.705536 300.083130,331.847748 
	C300.776123,330.833588 301.240784,330.153595 301.853333,329.236176 
	C302.001221,328.998779 302.000000,329.000000 301.999390,329.000366 
z"/>
<path fill="#9254FD" opacity="1.000000" stroke="none" 
	d="
M323.036133,276.835449 
	C322.399628,276.510406 321.976593,276.006012 321.553528,275.501587 
	C322.346741,275.211884 323.139954,274.922211 323.933167,274.632507 
	C323.705292,275.307037 323.477448,275.981537 323.036133,276.835449 
z"/>
<path fill="#9254FD" opacity="1.000000" stroke="none" 
	d="
M309.650543,327.961884 
	C309.881073,327.872620 310.107178,327.926392 310.333252,327.980194 
	C310.104187,328.021759 309.875153,328.063324 309.650543,327.961884 
z"/>
<path fill="#9254FD" opacity="1.000000" stroke="none" 
	d="
M308.506836,331.506531 
	C308.486359,331.514069 308.527283,331.498962 308.506836,331.506531 
z"/>
<path fill="#9254FD" opacity="1.000000" stroke="none" 
	d="
M297.493469,329.491638 
	C297.514374,329.483887 297.472565,329.499390 297.493469,329.491638 
z"/>
<path fill="#9254FD" opacity="1.000000" stroke="none" 
	d="
M325.506927,271.508026 
	C325.486450,271.515747 325.527405,271.500305 325.506927,271.508026 
z"/>
<path fill="#9254FD" opacity="1.000000" stroke="none" 
	d="
M345.999390,269.000153 
	C345.998779,269.000305 346.064423,269.116241 346.032349,269.057495 
	C346.000275,268.998779 346.000000,269.000000 345.999390,269.000153 
z"/>
</svg>